# xmcd
#
# Track frame offsets:
#	182
#	17122
#	30390
#	43075
#	53352
#	71780
#	81770
#	96125
#	114687
#	127437
#	141172
#	160242
#	175447
#	187382
#
# Disc length: 2728 seconds
#
# Revision: 0
# Processed by: cddbd v1.5.1PL0 Copyright (c) Steve Scherf et al.
# Submitted via: dBpowerAMP V4.0
#
DISCID=cc0aa60e
DTITLE=Various Artist - Asi canta nuestra tierra en navidad - antologia vol 2
DYEAR=2003
DGENRE=villancicos 
TTITLE0=que ole ole 
TTITLE1=un pastor lleva una burra 
TTITLE2=entre en la sacristia 
TTITLE3=la samaritana
TTITLE4=las tablas de moises 
TTITLE5=una pandereta suena
TTITLE6=madre en la puerta hay un niño
TTITLE7=un pastor le dice a otro pastor
TTITLE8=los abuelos
TTITLE9=viva la nochebuena
TTITLE10=doncella y preñada 
TTITLE11=la virgen y el pastor
TTITLE12=a pedir los reyes
TTITLE13=los charafallos
EXTD=Asi Canta nuestra tierra en navidad - antologia vol 2
EXTT0=
EXTT1=
EXTT2=
EXTT3=
EXTT4=
EXTT5=
EXTT6=
EXTT7=
EXTT8=
EXTT9=
EXTT10=
EXTT11=
EXTT12=
EXTT13=
PLAYORDER=
